<?xml version="1.0" encoding="UTF-8" standalone="no" ?>
<!DOCTYPE svg PUBLIC "-//W3C//DTD SVG 1.1//EN" "http://www.w3.org/Graphics/SVG/1.1/DTD/svg11.dtd">
<svg xmlns="http://www.w3.org/2000/svg" xmlns:xlink="http://www.w3.org/1999/xlink" version="1.1" width="400" height="400" viewBox="0 0 400 400" xml:space="preserve">
<desc>Created with Fabric.js 3.6.2</desc>
<defs>
</defs>
<g transform="matrix(3.13 0 0 3.13 198.44 200.78)" id="path17"  >
<path style="stroke: rgb(0,0,0); stroke-width: 2.00005412; stroke-dasharray: none; stroke-linecap: round; stroke-dashoffset: 0; stroke-linejoin: round; stroke-miterlimit: 4; fill: none; fill-rule: evenodd; opacity: 1;"  transform=" translate(-0.5, -90.75)" d="m 21.147446 76.48771 c 6.81577 10.175656 5.759805 23.90319 -3.359887 32.5429 c -9.1196921 8.63971 -22.9432261 9.0237 -32.542902 1.63195 m -5.279822 -5.56782 c -7.007763 -10.079656 -5.855802 -23.999186 3.359887 -32.638894 c 9.1196919 -8.639709 23.0392229 -9.023696 32.638899 -1.535948" stroke-linecap="round" />
</g>
<g transform="matrix(3.13 0 0 3.13 198.46 200.91)" id="circle19"  >
<circle style="stroke: rgb(0,0,0); stroke-width: 2.00005412; stroke-dasharray: none; stroke-linecap: butt; stroke-dashoffset: 0; stroke-linejoin: miter; stroke-miterlimit: 4; fill: none; fill-rule: evenodd; opacity: 1;"  cx="0" cy="0" r="15.263485" />
</g>
<g transform="matrix(3.13 0 0 3.13 198.46 200.91)" id="line21"  >
<line style="stroke: rgb(0,0,0); stroke-width: 2.00005412; stroke-dasharray: none; stroke-linecap: round; stroke-dashoffset: 0; stroke-linejoin: round; stroke-miterlimit: 4; fill: none; fill-rule: evenodd; opacity: 1;"  x1="0" y1="-19.967326" x2="0" y2="19.967326" />
</g>
<g transform="matrix(3.13 0 0 3.13 198.46 200.91)" id="line23"  >
<line style="stroke: rgb(0,0,0); stroke-width: 2.00005412; stroke-dasharray: none; stroke-linecap: round; stroke-dashoffset: 0; stroke-linejoin: round; stroke-miterlimit: 4; fill: none; fill-rule: evenodd; opacity: 1;"  x1="-19.9673265" y1="0" x2="19.9673265" y2="0" />
</g>
</svg>