<svg width="22" height="13" viewBox="0 0 22 13" fill="none" xmlns="http://www.w3.org/2000/svg">
<path d="M20.503 12.3804H18.222C17.359 12.3804 17.099 11.6814 15.552 10.1334C14.2 8.83036 13.629 8.66836 13.287 8.66836C12.814 8.66836 12.685 8.79836 12.685 9.44936V11.5014C12.685 12.0564 12.505 12.3814 11.055 12.3814C9.64829 12.2869 8.28416 11.8595 7.07497 11.1345C5.86578 10.4095 4.84612 9.40763 4.1 8.21136C2.32839 6.00638 1.09571 3.41844 0.5 0.653357C0.5 0.311357 0.63 0.00135681 1.282 0.00135681H3.562C4.148 0.00135681 4.359 0.262357 4.589 0.865357C5.696 4.12336 7.585 6.95736 8.352 6.95736C8.646 6.95736 8.774 6.82736 8.774 6.09436V2.73836C8.677 1.20736 7.864 1.07836 7.864 0.524357C7.87428 0.378198 7.94114 0.241805 8.05037 0.14415C8.15961 0.0464946 8.30261 -0.00473 8.449 0.00135681H12.033C12.523 0.00135681 12.685 0.245357 12.685 0.831357V5.36136C12.685 5.85036 12.895 6.01236 13.043 6.01236C13.337 6.01236 13.563 5.85036 14.102 5.31236C15.2574 3.90334 16.2013 2.33352 16.904 0.652357C16.9759 0.45051 17.1119 0.277731 17.2912 0.160374C17.4705 0.0430166 17.6832 -0.0124774 17.897 0.00235673H20.178C20.862 0.00235673 21.007 0.344357 20.862 0.832357C20.0324 2.69077 19.0058 4.45486 17.8 6.09436C17.554 6.46936 17.456 6.66436 17.8 7.10436C18.026 7.44636 18.826 8.11436 19.363 8.74936C20.145 9.52936 20.794 10.4314 21.285 11.4194C21.481 12.0554 21.154 12.3804 20.503 12.3804Z" fill="black"/>
</svg>
